<svg xmlns="http://www.w3.org/2000/svg" version="1.1" xmlnsXlink="http://www.w3.org/1999/xlink" xmlnssvgjs="http://svgjs.dev/svgjs" width="1000" height="1125" viewBox="0 0 1000 1125"><g transform="matrix(1,0,0,1,1.7053025658242404e-13,0)"><svg viewBox="0 0 320 360" data-background-color="#90adbb" preserveAspectRatio="xMidYMid meet" height="1125" width="1000" xmlns="http://www.w3.org/2000/svg" xmlnsXlink="http://www.w3.org/1999/xlink"><defs></defs><g id="tight-bounds" transform="matrix(1,0,0,1,-5.684341886080802e-14,0)"><svg viewBox="0 0 320 360" height="360" width="320"><g><svg></svg></g><g><svg viewBox="0 0 320 360" height="360" width="320"><g><path d="M85.508 32.884c0-1.117 0.558-2.233 1.675-2.233 1.117 0 2.233 0.558 2.234 2.233 0.558 0 1.675 0 2.233-0.558 2.233 0 4.467-0.558 6.141 0 1.675 0.558 2.792 0.558 4.467 1.117 1.675 0.558 2.792 0 3.908-0.559 2.233-0.558 3.908-1.675 6.141-2.233 1.117-0.558 1.675-0.558 2.792-0.558 1.117-0.558 2.233-0.558 3.908-1.117 2.792-0.558 5.583-1.117 7.817-2.233 2.233-1.117 4.467-1.117 6.699-1.675 1.117 0 1.675-0.558 2.792-1.117 0.558 0 0.558-0.558 1.116-1.116 1.117-0.558 1.675-1.117 2.792-0.559 0.558 0.558 1.675 0.558 2.233 0h0.559c3.35 0 6.7-0.558 10.608 0 0.558 0 1.117 0 1.116 0 1.675-1.117 3.908-1.117 6.142-1.116 0.558 0 1.675 0 2.233 0h0.558c2.233 0 4.467 0 6.142 0.558 1.675 0 2.792 0.558 4.466 1.117 1.675 0 2.792 0 4.467 0.558 1.117 0 2.233 0 3.35 0 0.558 0 1.117 0 1.116 0 2.233 0.558 4.467 0.558 6.7 0.558 1.675 0.558 3.35 1.117 5.583 1.117 0.558 0 1.117 0 1.675 0 0.558 0 1.117 0.558 1.675 0.558l0.558 0.559c2.233 0 3.908 1.117 6.142 1.116 0.558 0 1.675 0 2.233 0.559 1.675 1.117 3.908 1.675 6.141 1.675 1.117 0 1.675 0.558 2.234 1.116 1.675 0.558 2.792 1.117 4.466 1.675 1.117 0.558 2.233 0 3.35 0.558 1.675 0.558 3.908 1.117 5.583 2.792 1.117 1.117 2.233 1.117 3.908 2.233 0.558 0 1.117 0.558 1.675 1.117 1.675 1.117 3.35 2.233 5.025 2.791 0.558 0 1.117 0.558 1.675 0.559 1.675 1.117 3.35 2.792 5.583 3.908 1.117 0.558 1.675 1.117 2.792 1.675h0.558c1.675 1.675 3.908 2.792 5.583 4.466 1.675 1.675 2.792 2.792 5.025 3.909 0 0 0 0 0 0.558 0.558 1.117 1.117 1.675 2.233 2.233 1.117 0.558 1.675 1.117 2.234 1.675 1.675 1.117 3.35 2.233 4.466 3.35 0.558 0.558 1.117 1.117 2.233 2.233 0.558 0.558 1.117 1.117 1.675 1.117 2.233 0.558 3.35 2.233 5.025 3.908 1.117 1.117 2.792 2.792 3.908 3.908 0.558 0.558 1.117 1.675 1.675 2.792 1.117 3.35 2.792 6.7 4.467 9.491 0 0 0 0.558 0.558 1.117v0.558c1.117 1.117 1.675 2.792 2.792 3.908 0.558 0.558 0.558 1.117 1.116 1.675 1.117 1.675 1.675 3.908 2.792 5.583 1.675 2.792 2.792 5.583 3.908 8.375v0.558c0.558 1.117 1.117 2.233 1.675 3.908 0 1.117 1.117 2.233 1.675 3.909 0.558 2.792 2.233 5.583 2.791 8.933 0 0.558 0.558 1.117 0.559 2.233 0.558 1.675 1.117 3.35 1.675 5.025 0 0.558 0.558 1.117 1.116 1.675 1.117 1.117 1.117 2.233 1.117 3.35-0.558 2.233 0 4.467 0.558 6.699 0 0.558 0 1.117 0 2.234 0.558 2.233 1.117 5.025 1.117 7.258 0 0.558 0 1.675 0 2.233 0 1.675 0.558 3.35 1.675 5.025 0 0.558 0.558 0.558 0.558 0.558 0.558 0.558 1.117 1.675 1.675 2.233 0.558 0.558 0.558 0.558 1.117 1.117 1.117 1.117 1.675 2.233 1.675 3.908 0 0.558-0.558 1.675-0.559 2.233 0 0.558 0 1.675 0.559 2.234 0.558 0.558 0.558 1.117 0.558 1.675 0 0.558-0.558 1.117-1.117 1.116v0c-0.558 1.675-2.792 2.233-3.35 3.908-0.558 2.233-1.117 4.467-1.674 6.7-0.558 1.675-0.558 2.792-0.559 4.467 0 1.675-0.558 2.792-0.558 4.466-0.558 2.233-1.117 4.467-1.675 6.7 0 1.117-0.558 2.233-0.558 3.35 0.558 0.558 1.117 1.117 1.675 1.116 1.117 1.117 2.233 2.233 3.349 3.35 0.558 0.558 0.558 1.117 0 1.117-0.558 0.558-1.117 0.558-1.674 0.558-0.558-0.558-1.675-1.117-2.234-1.116-0.558-0.558-1.675-1.117-2.791-0.559 0 1.117-0.558 2.233-0.559 2.792-0.558 1.117-1.117 2.792-1.116 3.908-0.558 2.233-1.675 3.908-2.233 6.142-1.117 2.792-2.233 5.025-3.35 7.258-0.558 1.117-1.117 2.233-1.675 3.35v0c0 1.675-1.675 3.35-2.234 5.024-1.117 2.233-2.233 4.467-3.349 7.258-0.558 1.117-1.117 2.233-1.675 2.792-1.117 2.792-2.233 5.025-3.909 7.258-1.117 1.675-2.233 2.792-3.349 3.35-1.117 1.117-2.233 2.233-3.35 3.35-0.558 0.558-1.117 1.117-1.675 1.675-0.558 0.558-0.558 0.558-1.117 1.116-1.117 1.675-2.792 2.792-3.908 4.467-1.117 1.117-1.675 2.233-3.35 3.35-1.117 1.117-2.233 2.792-3.908 3.35-0.558 0.558-1.117 1.675-1.675 2.233-0.558 0.558-1.117 1.675-1.675 2.233 0 1.117 0.558 2.233 0.558 2.792 0 1.675-1.675 2.233-2.791 1.116-1.675-1.117-1.675-1.117-3.35 0-1.675 1.117-3.35 2.792-5.583 3.35-0.558 0-0.558 0.558-1.117 0.559-1.117 0.558-1.675 1.675-2.792 2.233-1.117 1.117-2.792 1.675-3.908 2.791-0.558 0.558-1.117 0.558-1.675 1.117-1.675 1.117-3.35 1.675-5.024 3.35-0.558 0.558-1.117 0.558-1.675 1.117 0 0.558 0 0.558 0 1.116 0 1.117-1.117 2.233-2.792 1.675-1.675-0.558-2.792 0-4.466 0-1.675 0.558-3.35 1.675-5.025 2.233-0.558 0-1.117 0.558-1.675 1.117-1.675 1.117-3.35 1.675-5.025 2.233-1.117 0-2.233 1.117-3.35 1.117-0.558 0-1.117 0.558-1.675 0.558h-0.558c-2.233 1.675-4.467 2.792-6.7 4.467-0.558 0-0.558 0.558-1.117 1.116-0.558 1.117-1.117 1.675-2.233 1.675-2.792 0-3.908 2.233-3.35 4.467 0 0.558 0.558 1.117 0.559 1.675 0.558 1.117 0 2.233-0.559 2.791-0.558 0.558-2.233 0.558-2.791-0.558-1.117-1.117-1.675-2.233-2.234-3.908-0.558-1.117-1.675-2.233-2.791-2.792-1.117-0.558-2.233-0.558-3.35 0-0.558 0-0.558 0.558-1.117 0.558-1.117 1.117-2.792 1.675-4.466 1.117-0.558 0-1.675 0-1.675 0.558-0.558 0.558-0.558 1.675 0 2.234 1.117 1.117 0.558 2.233 0.558 3.908 0 2.233-1.675 3.35-3.908 2.233-0.558-0.558-1.117-0.558-1.675-1.117-0.558 0-0.558-0.558-0.558-1.116-0.558-0.558-0.558-1.675-1.117-2.792-1.117 0.558-2.233 0.558-3.35 1.117-0.558 0-1.117 0.558-1.675 0.558-1.675 0-2.233 0-2.791-1.675-0.558-1.675-1.675-1.675-2.792-2.233-2.233-0.558-5.025-0.558-7.258-1.675h-0.558c-2.233-1.675-4.467-1.675-7.258-1.675-1.675 0-3.35 0.558-5.025 0.558-1.675 0-2.792 0.558-3.908 1.675-0.558 0.558-1.117 1.117-1.675 1.117-0.558-0.558-0.558-1.117-1.117-1.675v-0.558c0-0.558-0.558-1.117-1.116-0.559-1.117 0.558-2.233-0.558-3.35-1.116-0.558-0.558-1.675-1.675-1.675-2.792-0.558-0.558-1.117-1.117-1.675-1.116-1.117 0-2.792-0.558-3.908-0.559-0.558 0-1.117 0-1.117-0.558-0.558-0.558-1.117-0.558-2.233-0.558-0.558 0-0.558-0.558-1.117-0.559 1.117 1.117 1.675 2.233 2.233 3.35 0 0.558 0.558 0.558 0.559 1.117 0.558 1.117 0 1.675-1.675 1.675-1.117 0-1.117 0-1.675 0.558 0 1.117 0 1.675 0 2.792 0 0.558 0 1.117-1.117 1.675 0 0-0.558 0-0.558 0.558-0.558 0.558-0.558 1.117 0 1.675 1.675 1.117 2.792 1.675 4.466 2.233 1.675 0 1.675 1.117 2.234 2.233 0.558 1.117 0 1.675-0.559 2.792-1.117 1.117-2.233 2.233-3.35 3.35-1.675 0.558-2.792 2.233-4.466 2.233-1.117 0-2.233-0.558-2.792-1.675-0.558-2.792-0.558-5.025 0.559-7.816 0-0.558 0.558-1.117 0-1.675-5.025 0-5.025-1.117-5.025-1.675 0-1.117 0.558-1.675 0.558-2.792 0.558-1.117 0-1.675-1.675-2.233-0.558 0-1.117 0-1.675 0-0.558 0-0.558-0.558-1.675-0.558 1.117-0.558 1.675-0.558 2.792-1.117-0.558-2.233-1.117-3.908-2.792-5.025-0.558-0.558-1.117-1.117-1.116-2.233 0-1.675-1.117-2.792-1.675-3.908-1.117-1.675-3.35-2.233-5.025-2.233-1.675-0.558-2.792-0.558-4.467-1.117-1.675-0.558-3.35-2.233-5.024-2.792-0.558-0.558-1.117-1.117-2.234-1.674-2.233-1.117-3.908-2.792-5.583-4.467-1.117-0.558-1.675-1.675-2.791-2.233-1.117-1.117-1.675-2.233-2.792-2.792-1.117-1.117-2.233-2.233-3.908-3.35-1.675-1.117-2.792-2.792-4.467-4.466-1.117-1.675-2.792-2.792-4.466-3.908-0.558 0-1.117 0-1.675 0-0.558 0-1.117 0.558-1.675 0.558-1.675 0.558-2.792 1.675-4.467 2.233 0.558-0.558 0.558-0.558 0-1.675-0.558-0.558-1.117-1.117-1.674-1.116-1.117 0-2.233 0-3.35 0-2.233 0-4.467 0.558-6.7 0.558-1.675 0-3.908 0.558-5.583 1.117 0.558 1.117 0.558 1.675 1.116 2.791-1.117 0.558-2.233 0.558-3.35 0.558-0.558 0-1.675 0.558-2.233 1.117-0.558 0-0.558 0.558-1.116 0-1.117-0.558-2.233 0-3.35 0.558h-0.559c0 0 0-0.558 0.559-0.558 0.558-0.558 1.117-1.117 1.675-1.675 0.558-0.558 1.117-0.558 2.233-1.117-0.558-0.558-0.558-1.117-0.558-1.116-0.558-0.558-1.117-0.558-1.675 0-0.558 0.558-1.117 1.117-1.675 1.675-0.558 0.558-1.117 0.558-1.675 0-0.558-0.558-0.558-1.117 0-1.675 0-0.558 0.558-1.117 1.116-1.675 0.558-0.558 0.558-1.117 1.117-1.675-1.117-1.117-1.675-2.233-2.792-2.792-1.675-1.117-3.35-2.792-4.466-4.466-1.117-2.233-2.792-3.908-5.025-5.025-0.558-0.558-1.117-1.117-1.675-1.675-0.558-0.558-0.558-0.558-1.116-1.117-1.675 0.558-2.792 1.675-4.467 2.234-0.558 0-0.558 0.558-1.117 1.116-0.558 1.117-1.675 1.117-2.791 1.117-0.558 0-1.117-0.558-0.558-1.117 0.558-1.117 1.117-2.233 2.791-1.675 0 0 0.558 0 0.558-0.558 1.117-1.117 2.233-2.792 3.909-3.908-0.558-1.675-1.675-2.792-2.234-3.908-0.558-0.558-0.558-1.117-0.558-2.234 0-0.558 0-0.558-0.558-1.116 0 0-0.558 0-1.117 0.558-0.558 0.558-1.675 1.117-2.791 0 0-0.558 0-1.117 0.558-1.675l0.558-0.558c1.675-0.558 1.675-2.233 1.675-3.908v-0.559c-0.558-1.117-0.558-1.675 0.558-2.791 1.675-1.117 3.35-3.35 3.909-5.025 0.558-1.117 1.675-1.675 2.791-2.792 1.117-1.117 2.233-2.233 2.792-3.908h0.558c2.233 0.558 2.792-1.117 3.908-2.791 0-0.558 0-1.117 0.559-1.117 1.117-1.117 1.117-2.233 0.558-3.908 0-0.558-0.558-1.675-0.558-2.233 0-0.558 0-0.558-0.559-1.117-1.675-1.117-1.675-2.233 0-3.35 1.117-0.558 1.117-1.675 1.675-2.233 0.558-1.117 0.558-2.233 0.559-3.908-0.558-1.675-0.558-3.908-1.117-5.583-0.558-2.233-1.117-5.025-1.675-7.259 0-0.558 0-0.558 0-1.116 0-1.675 0-2.792-0.558-4.467-0.558-0.558-0.558-1.675-0.559-2.233-0.558-1.675-1.117-2.792-2.791-3.35-1.675-1.117-3.908-1.675-5.583-2.791-0.558-0.558-1.117 0-1.675 0.558-0.558 1.117-1.675 2.233-2.234 3.35-0.558 0.558-1.117 1.675-1.675 2.791-1.117 1.117-3.35 2.233-5.024 0.559-0.558-1.117-1.117-1.675 0-2.792 1.117-1.675 2.233-3.35 3.908-4.466 0.558-0.558 1.117-1.675 1.675-2.234 0.558-1.117 0.558-2.233 0.558-3.35-0.558-2.233-1.117-4.467-1.117-7.258 0-2.792 0-5.025 0.559-7.816 0.558-1.117 0.558-2.792 1.116-3.908 0-0.558 0.558-1.675 1.117-2.233 1.117-1.117 2.233-2.233 2.792-3.909 0.558-1.675 1.675-3.35 1.675-5.024 0-0.558 0.558-1.117 0.558-1.675 0-0.558 0.558-1.675 0.558-2.234-0.558-1.675 0-2.792 0.558-3.908 0.558-1.117 1.117-2.792 1.675-3.908 1.117-2.233 1.117-5.025 3.35-7.258 0.558-1.117 1.117-2.233 1.675-3.35 0.558-2.233 1.675-3.908 2.792-5.583 0.558-0.558 0.558-0.558 0.558-1.117 0.558-1.675 1.675-3.35 2.792-5.025 1.117-1.675 1.117-3.35 1.675-5.024 0-0.558 0-1.117 0.558-1.675 1.675-1.675 1.117-3.908 0.558-6.142-1.117-2.792-1.675-5.583-1.116-8.374 0-0.558 0-1.117 0.558-1.117 0.558-1.117 0.558-1.675 1.117-2.792v-0.558c1.117-1.117 2.233-2.792 3.908-3.35 2.233-1.117 4.467-1.675 7.258-2.233 2.233 0 4.467-1.117 6.141-3.35 0-0.558 0.558-0.558 1.117-1.117l0.558-0.558c0.558-1.117 1.117-1.675 1.675-2.233 1.117-1.117 2.233-2.792 3.35-3.908 1.117-1.117 2.233-2.792 3.908-4.467l0.559-0.558c1.117-1.117 2.233-2.233 3.349-2.792 1.117-1.117 2.233-2.233 3.35-3.35 1.117-1.117 1.675-2.233 2.792-3.35 1.117-0.558 2.233-1.675 3.35-2.791 1.117-1.117 2.233-2.233 2.791-2.792 1.117-1.117 2.792-2.233 3.909-2.791 1.117-0.558 2.233-1.117 2.791-2.792 0.558-1.675 1.117-2.792 1.675-4.466 0-1.117 0.558-2.233 1.117-3.35 0.558 0 1.117 0 2.233-0.558-0.558-0.558-1.117-0.558-1.117-1.117 0-0.558 0.558-1.117 0.559-1.117 0-0.558 0.558-1.117 0.558-1.675 0 0 0.558 0 0.558-0.558 0 0 0.558 0 0.559-0.558-1.117 0.558-1.675 0-2.234-0.559 0.558 0.558 1.117 0.558 2.234 1.117 0 0 0.558 0 0.558-0.558 0-0.558 0-1.117 0-1.117 0 0-0.558 0-1.117 0-0.558 0-1.117 0.558-1.675 0.558zM182.097 295.292c0-0.558-0.558-0.558-0.559-1.117-0.558-1.117 0-1.675 0.559-2.233 0.558-0.558 1.117-0.558 2.233-0.558 1.117 0.558 1.675 1.117 1.675 2.233 0 0.558 0 1.675 0 2.233 0.558 2.233 0.558 2.233 2.791 2.233 1.117 0 2.233 0 3.35 0 2.233-0.558 4.467-1.675 6.7-2.233 2.233-0.558 4.467-1.117 6.7-1.675 0.558 0 1.117 0 2.233 0 2.233 0.558 3.908 0 5.583-1.117 0.558-0.558 1.675-0.558 2.233-1.116 1.117-0.558 2.233-0.558 3.35-1.117 2.792-1.675 5.583-2.792 7.817-4.466 1.675-1.117 3.35-2.233 5.024-3.35 1.675-1.117 3.35-2.233 5.025-3.35 1.117-0.558 2.792-1.675 3.908-2.792 2.233-1.675 3.908-3.35 6.142-4.466 1.117-0.558 1.675-1.117 2.233-1.675 1.117-0.558 1.675-1.675 2.792-2.233 0.558-0.558 1.117-1.117 2.233-1.675 0.558-0.558 0.558-0.558 0.558-1.117 1.675-1.117 3.35-3.35 4.467-5.025 1.117-1.117 2.233-2.233 3.35-3.908 1.675-1.675 2.792-3.908 4.466-6.141 1.117-1.117 2.233-2.792 2.792-3.909 1.117-2.233 2.233-4.467 3.908-6.141v-0.558c1.117-2.233 2.233-4.467 3.35-6.7 1.675-2.792 2.792-6.141 4.466-8.933 0.558-1.117 1.117-2.233 1.117-3.35 1.117-2.233 1.675-4.467 2.233-6.7 0-0.558 0-0.558 0.559-1.116 1.675-3.35 2.792-6.7 3.349-10.608 0.558-2.233 1.117-4.467 1.675-6.7 1.117-3.35 1.117-6.141 1.675-9.491 0.558-2.233 0.558-5.025 0.559-7.258 0.558-3.35 0.558-7.258 0-10.608 0-2.792-0.558-6.141-0.559-8.933 0-2.792-0.558-5.025-1.116-7.817-0.558-2.792-1.117-5.025-1.675-7.816-1.117-2.233-1.675-4.467-2.234-7.258-0.558-2.233-1.675-3.908-1.674-6.142 0-1.675-0.558-3.35-2.234-3.908-1.675-0.558-2.792-1.117-4.466-2.233-3.35-2.233-5.025-5.025-4.467-8.375 0-1.675 0.558-3.908 1.117-5.583 0.558-1.675 1.117-3.35 0-4.467-0.558-1.675-1.675-2.792-2.233-3.908-1.117-1.675-1.675-2.792-2.792-3.908-1.117-2.233-2.233-4.467-3.908-6.141-2.233-2.792-3.908-5.583-6.7-7.817l-0.558-0.558c-1.675-2.233-3.35-4.467-5.583-6.142-1.117-1.117-2.233-2.233-3.35-2.791-0.558-0.558-1.117-1.117-2.233-1.675-1.675-1.117-3.35-1.675-4.467-2.792-1.675-1.675-3.908-2.792-5.583-3.908 0 0-0.558 0-0.558-0.558-2.233-1.117-3.908-1.675-6.142-2.792-2.233-1.117-4.467-1.675-6.7-1.675-0.558 0-0.558 0-1.116 0-0.558-0.558-1.675-0.558-2.233-0.558-0.558 0-0.558 0-1.117 0-1.117-0.558-2.792 0-3.908 0-2.233 0.558-4.467 0.558-6.7-0.558-2.792-1.117-5.025-2.233-7.258-3.35-1.675-1.117-2.792-2.233-4.467-3.35-3.35-2.792-6.7-6.141-10.608-8.933 0.558-2.792-0.558-3.35-2.791-3.35-1.117 0-2.233 0.558-3.35 1.117-0.558 0.558-0.558 0.558-1.117 1.116-1.675 1.117-2.792 2.792-4.466 3.909-2.792 1.675-3.908 1.117-6.142 0-0.558-0.558-1.117-1.117-1.675-1.675-1.117-1.117-2.233-2.792-2.791-3.909-1.117-2.233-3.35-2.233-5.583-2.233-1.117 0-2.792 0.558-3.908 0.558-2.233 0-4.467 1.117-5.584 2.792-1.117 1.675-2.233 3.35-3.908 5.025-0.558 0.558-1.675 1.117-2.233 2.233-1.117 1.117-2.233 1.117-3.35 0-0.558-0.558-1.117-0.558-1.675-1.117-0.558 0.558-1.117 1.117-1.117 1.675-0.558 1.117-1.117 2.233-1.674 3.909-0.558 1.675-1.675 3.35-2.792 4.466-0.558 0.558-0.558 0.558-1.117 1.117-0.558 1.117-2.233 1.675-3.35 1.675-1.117 1.117-2.233 2.792-2.791 3.908-0.558 1.117-1.117 2.233-1.675 3.908-0.558 0.558-0.558 1.675-1.117 2.233-0.558 1.117-0.558 1.675-0.558 2.792 0.558 1.675-0.558 2.233-2.233 2.791-1.117 0-1.117 0-1.675 1.117 0 1.675 0.558 2.792 1.116 4.467 0.558 0.558 1.117 1.675 1.117 2.233 0 1.117 0.558 1.675 1.675 2.233 0.558 0.558 1.117 1.117 1.675 1.117 0.558 0 0.558 0.558 1.117 0.558 0.558 0.558 1.117 0 1.116-0.558 0.558-1.675 1.117-3.35 1.117-5.025 0.558-2.233 0.558-3.908 1.116-6.142 0.558-1.117 1.117-1.675 1.675-2.233 0 0 0.558 0 1.117 0v0.559c-0.558 2.792-1.675 6.141-2.233 8.933-0.558 1.117-0.558 2.233-1.117 3.349 0 0.558-0.558 1.117-1.116 1.117-1.117 0.558-2.233 1.117-3.35 1.117-0.558 0-1.117 0-1.675 0-1.117-0.558-2.233-1.675-3.35-2.234-0.558-0.558-1.117-1.117-1.675-1.674-0.558-1.117-1.117-2.233-1.675-3.35-0.558-1.117-1.117-1.675-2.233-2.234-0.558-0.558-1.117-0.558-1.675-1.116-1.117-1.117-2.233-1.675-3.908-1.675-0.558 0-1.675 0-2.234 0-0.558 0-1.675 0.558-2.233 1.116-1.117 0.558-1.675 0.558-2.791 0-2.792-1.117-5.583-0.558-8.375 0.559-1.117 0.558-2.233 1.117-3.35 1.116-2.792 0-5.025 0-7.816 0-2.792 0-5.025-0.558-7.817-1.116-1.117 0-2.233 0-3.35 0-2.233 0.558-2.792 2.233-2.233 4.466 0.558 2.233 1.117 5.025 1.117 7.258 0 1.675 0 3.35 0 5.025 0 1.117 0 1.675 0 2.792 0 1.675-0.558 3.35-0.559 5.025-0.558 3.35-2.233 6.141-4.466 8.374-1.675 1.675-3.908 3.35-6.142 3.908-1.117 0.558-2.233 1.117-3.908 1.675-2.792 1.117-5.025 3.35-6.7 6.142-0.558 1.117-1.117 2.233-1.674 3.35-1.117 1.675-1.675 2.792-2.792 4.466-0.558 1.117-1.675 2.233-2.233 3.35-0.558 1.117-1.675 1.675-1.675 2.792-1.117 2.233-1.675 4.467-2.792 6.699-0.558 1.117-0.558 2.792-1.116 3.909-1.117 2.233-1.117 4.467-1.117 7.258 0 0.558 0 1.117 0 2.233 0 2.792-0.558 6.141-0.558 8.933 0 2.792 0 5.583 0.558 8.375 0 1.117 0 2.792 0 3.908 0 2.233 0.558 5.025 0.558 7.258 0 2.233 0 5.025 1.117 7.258v0.558c0.558 2.233 0.558 4.467 1.116 6.7 0 0.558 0 1.117 0.559 1.675 1.117 3.35 1.675 6.141 2.791 9.491 0.558 2.233 1.675 4.467 2.234 6.7 0.558 2.233 2.792 4.467 3.349 7.258v0c1.675 3.35 3.35 6.7 5.584 10.05 0.558 1.117 1.675 2.233 2.233 3.35 1.117 1.675 1.675 3.35 2.791 4.466 0.558 1.117 1.675 2.233 2.234 2.792 0.558 1.117 1.117 2.233 2.233 3.35 1.117 1.117 2.233 2.792 3.35 3.908 1.675 2.792 3.908 5.025 6.141 6.7 1.117 1.117 2.233 1.675 3.35 2.791 0.558 0.558 1.117 0.558 1.117 1.117 0.558 0.558 1.117 1.117 2.233 1.675 4.467 2.233 7.816 5.583 11.725 8.933 1.675 1.675 3.35 3.35 5.583 4.466 2.233 1.675 3.908 3.35 6.7 3.908 0 0 0.558 0 0.558 0.559 1.117 1.117 2.792 1.675 3.908 2.233 2.233 1.117 5.025 2.233 7.258 3.35 0.558 0.558 1.675 0.558 2.233 1.117 1.675 0.558 3.35 1.117 5.025 1.674 1.675 0.558 2.792 1.117 4.467 1.117h0.558c1.117 0.558 1.675 0.558 2.792 0 0.558 0 1.117 0 1.116 0.558 0 0.558 0.558 0.558 1.117 0.559 0.558 0 1.117 0 2.233 0 0.558-0.558 0.558-1.117 1.117-2.234 0.558 0.558 1.117 0.558 1.116 0.559 0.558 1.117 1.675 1.117 2.792 1.116h0.558c1.117 0 1.675 0 2.233-0.558 0-0.558 1.117-0.558 1.675-0.558 1.675 0.558 3.35 0.558 5.025 1.116 1.117 0.558 2.792 0.558 3.35-0.558 0.558-0.558 1.117-1.117 2.233-0.558 1.117 0.558 1.675 0.558 2.792 0 0.558 0 1.117 0 1.117 0 1.675 0.558 2.792 0.558 4.466 1.116 2.233 0.558 2.233 0.558 3.908-1.116 0.558-0.558 1.675-0.558 2.233 0 0.558 1.117 0.558 1.675 0.559 2.791 0.558 0 0.558 0 1.116-0.558 0-1.117 0.558-1.117 1.675-1.675 0.558 0.558 0.558 0.558 1.117 0.558 1.117 1.117 1.675 1.117 2.233-0.558 0-0.558 0-1.117 0.559-1.116 0.558 0 1.117 0.558 1.116 0.558 0.558 1.117 1.675 1.675 2.233 2.791 1.117 1.117 2.792 1.117 3.35 0 0.558-0.558 1.117-0.558 1.675-0.558 0-0.558 0-1.117 0-1.675 1.675 1.117 1.117 1.117 0.559 1.117zM89.417 34.559c1.675 0.558 2.792 0.558 3.349-0.558-1.117 0.558-2.233-0.558-3.349 0.558z" fill="#f6f6f6" data-fill-palette-color="tertiary"></path></g><g transform="matrix(1,0,0,1,64,145.8274349132948)"><svg viewBox="0 0 192 68.3451301734104" height="68.3451301734104" width="192"><g><svg viewBox="0 0 192 68.3451301734104" height="68.3451301734104" width="192"><g><svg viewBox="0 0 192 68.3451301734104" height="68.3451301734104" width="192"><g><svg viewBox="0 0 192 68.3451301734104" height="68.3451301734104" width="192"><g><svg viewBox="0 0 192 68.3451301734104" height="68.3451301734104" width="192"><g><svg viewBox="0 0 192 36.86209744013212" height="36.86209744013212" width="192"><g transform="matrix(1,0,0,1,0,0)"><svg width="192" viewBox="6.050000190734863 -47 363.27001953125 69.75" height="36.86209744013212" data-palette-color="#f6f6f6"><path d="M65.9-21.6Q67.05-21.6 67.58-21.1 68.1-20.6 68.1-19.8L68.1-19.8Q68.1-18.5 67.33-17.5 66.55-16.5 64.9-16.45L64.9-16.45Q60.95-16.4 57.8-17.05L57.8-17.05Q54.3-9.6 49.38-4.67 44.45 0.25 39.65 0.25L39.65 0.25Q35.25 0.25 33.05-4.42 30.85-9.1 30.55-16.95L30.55-16.95Q27.55-8.25 23.78-4 20 0.25 15.75 0.25L15.75 0.25Q10.95 0.25 8.5-5.73 6.05-11.7 6.05-21.8L6.05-21.8Q6.05-29.15 7.35-37.95L7.35-37.95Q7.7-40.45 8.63-41.43 9.55-42.4 11.55-42.4L11.55-42.4Q13.05-42.4 13.88-41.75 14.7-41.1 14.7-39.35L14.7-39.35Q14.7-39 14.6-38L14.6-38Q13.1-27.75 13.1-20.55L13.1-20.55Q13.1-13.85 14.25-10.2 15.4-6.55 17.35-6.55L17.35-6.55Q19.1-6.55 21.58-10.23 24.05-13.9 26.5-21.13 28.95-28.35 30.65-38.35L30.65-38.35Q31.05-40.65 32.13-41.53 33.2-42.4 35.05-42.4L35.05-42.4Q36.6-42.4 37.33-41.73 38.05-41.05 38.05-39.7L38.05-39.7Q38.05-38.9 37.95-38.45L37.95-38.45Q36.55-30.3 36.55-22.15L36.55-22.15Q36.55-16.6 36.93-13.3 37.3-10 38.38-8.28 39.45-6.55 41.5-6.55L41.5-6.55Q43.9-6.55 46.85-10.18 49.8-13.8 52.25-19.2L52.25-19.2Q49.2-21.1 47.65-24.13 46.1-27.15 46.1-31.1L46.1-31.1Q46.1-35.05 47.33-37.77 48.55-40.5 50.68-41.85 52.8-43.2 55.4-43.2L55.4-43.2Q58.6-43.2 60.48-40.9 62.35-38.6 62.35-34.6L62.35-34.6Q62.35-28.95 59.9-22.05L59.9-22.05Q62.45-21.6 65.9-21.6L65.9-21.6ZM51.15-31.45Q51.15-26.55 54.3-24.2L54.3-24.2Q56.25-29.8 56.25-33.45L56.25-33.45Q56.25-35.55 55.7-36.52 55.15-37.5 54.2-37.5L54.2-37.5Q52.85-37.5 52-35.93 51.15-34.35 51.15-31.45L51.15-31.45ZM88.75-15.35Q89.4-15.35 89.75-14.7 90.1-14.05 90.1-13.05L90.1-13.05Q90.1-10.65 88.65-10.2L88.65-10.2Q85.65-9.15 82.05-9L82.05-9Q81.1-4.8 78.3-2.27 75.5 0.25 71.95 0.25L71.95 0.25Q68.95 0.25 66.82-1.2 64.7-2.65 63.6-5.05 62.5-7.45 62.5-10.25L62.5-10.25Q62.5-14.05 63.95-17.03 65.4-20 67.95-21.68 70.5-23.35 73.6-23.35L73.6-23.35Q77.4-23.35 79.72-20.73 82.05-18.1 82.45-14.25L82.45-14.25Q84.8-14.4 88.05-15.25L88.05-15.25Q88.45-15.35 88.75-15.35L88.75-15.35ZM72.35-5.05Q73.95-5.05 75.12-6.35 76.3-7.65 76.7-10.1L76.7-10.1Q75.15-11.15 74.32-12.85 73.5-14.55 73.5-16.45L73.5-16.45Q73.5-17.25 73.65-18.05L73.65-18.05 73.4-18.05Q71.4-18.05 70.07-16.13 68.75-14.2 68.75-10.7L68.75-10.7Q68.75-7.95 69.82-6.5 70.9-5.05 72.35-5.05L72.35-5.05ZM89.35 0.25Q87.45 0.25 86.67-1.75 85.9-3.75 85.9-8.15L85.9-8.15Q85.9-14.65 87.75-20.5L87.75-20.5Q88.2-21.95 89.22-22.63 90.25-23.3 92.1-23.3L92.1-23.3Q93.1-23.3 93.5-23.05 93.9-22.8 93.9-22.1L93.9-22.1Q93.9-21.3 93.15-18.5L93.15-18.5Q92.65-16.5 92.35-15 92.05-13.5 91.85-11.3L91.85-11.3Q93.5-15.6 95.55-18.3 97.6-21 99.57-22.15 101.55-23.3 103.2-23.3L103.2-23.3Q106.45-23.3 106.45-20.05L106.45-20.05Q106.45-19.4 106-16.9L106-16.9Q105.6-14.9 105.6-14.4L105.6-14.4Q105.6-12.65 106.85-12.65L106.85-12.65Q108.25-12.65 110.45-14.85L110.45-14.85Q111.1-15.5 111.8-15.5L111.8-15.5Q112.45-15.5 112.82-14.93 113.2-14.35 113.2-13.4L113.2-13.4Q113.2-11.55 112.2-10.5L112.2-10.5Q110.8-9.05 108.92-8.03 107.05-7 104.95-7L104.95-7Q102.3-7 100.92-8.35 99.55-9.7 99.55-12L99.55-12Q99.55-12.75 99.7-13.5L99.7-13.5Q99.8-14.5 99.8-14.85L99.8-14.85Q99.8-15.65 99.25-15.65L99.25-15.65Q98.5-15.65 97.27-13.98 96.05-12.3 94.85-9.55 93.65-6.8 92.9-3.75L92.9-3.75Q92.35-1.4 91.62-0.58 90.9 0.25 89.35 0.25L89.35 0.25ZM136.94-11.15Q137.59-11.15 137.97-10.55 138.34-9.95 138.34-8.9L138.34-8.9Q138.34-6.9 137.39-5.8L137.39-5.8Q135.34-3.3 132.89-1.53 130.44 0.25 128.04 0.25L128.04 0.25Q124.24 0.25 122.24-4.2L122.24-4.2Q120.14-1.55 118.57-0.65 116.99 0.25 114.89 0.25L114.89 0.25Q111.84 0.25 109.87-2.02 107.89-4.3 107.89-7.95L107.89-7.95Q107.89-11.95 109.59-15.38 111.29-18.8 114.27-20.98 117.24-23.15 120.94-23.55L120.94-23.55Q121.89-33.25 124.57-40.13 127.24-47 131.59-47L131.59-47Q133.74-47 135.17-45.05 136.59-43.1 136.59-39.15L136.59-39.15Q136.59-33.55 133.84-26.05 131.09-18.55 126.49-10.65L126.49-10.65Q126.69-7.75 127.37-6.5 128.04-5.25 129.09-5.25L129.09-5.25Q130.44-5.25 131.84-6.45 133.24-7.65 135.59-10.45L135.59-10.45Q136.19-11.15 136.94-11.15L136.94-11.15ZM131.04-42.1Q130.09-42.1 129.14-38.73 128.19-35.35 127.52-29.9 126.84-24.45 126.54-18.5L126.54-18.5Q132.14-30.7 132.14-38.1L132.14-38.1Q132.14-40 131.82-41.05 131.49-42.1 131.04-42.1L131.04-42.1ZM116.64-4.8Q117.59-4.8 118.54-5.58 119.49-6.35 120.94-8.45L120.94-8.45Q120.44-11.15 120.44-14.5L120.44-14.5Q120.44-15.7 120.54-18.4L120.54-18.4Q117.79-17.55 115.97-14.73 114.14-11.9 114.14-8.45L114.14-8.45Q114.14-4.8 116.64-4.8L116.64-4.8ZM143.59 1.35Q140.99 1.35 139.62 0.15 138.24-1.05 138.24-2.55L138.24-2.55Q138.24-3.85 139.19-4.8 140.14-5.75 141.99-5.75L141.99-5.75Q142.64-5.75 143.52-5.63 144.39-5.5 144.84-5.45L144.84-5.45Q144.79-6.75 144.27-7.9 143.74-9.05 142.94-10.13 142.14-11.2 141.44-12L141.44-12Q139.89-9.05 138.37-7.1 136.84-5.15 135.04-3.4L135.04-3.4Q134.14-2.5 133.14-2.5L133.14-2.5Q132.34-2.5 131.84-3.08 131.34-3.65 131.34-4.5L131.34-4.5Q131.34-5.5 132.04-6.35L132.04-6.35 132.69-7.15Q135.44-10.55 136.84-12.75L136.84-12.75Q137.69-14.2 138.84-16.63 139.99-19.05 141.09-21.65L141.09-21.65Q142.04-23.85 145.04-23.85L145.04-23.85Q146.44-23.85 146.99-23.6 147.54-23.35 147.54-22.8L147.54-22.8Q147.54-22.5 147.34-21.85 147.14-21.2 146.79-20.55L146.79-20.55Q145.89-18.75 145.89-17.5L145.89-17.5Q145.89-16.75 146.42-15.85 146.94-14.95 148.04-13.6L148.04-13.6Q149.64-11.5 150.47-10.03 151.29-8.55 151.29-6.8L151.29-6.8Q151.29-6.3 151.19-5.4L151.19-5.4Q153.64-6.35 156.94-10.45L156.94-10.45Q157.54-11.15 158.29-11.15L158.29-11.15Q158.94-11.15 159.32-10.55 159.69-9.95 159.69-8.9L159.69-8.9Q159.69-7 158.74-5.8L158.74-5.8Q156.24-2.7 153.97-1.58 151.69-0.45 148.34-0.35L148.34-0.35Q146.34 1.35 143.59 1.35L143.59 1.35ZM178.09 0.25Q176.24 0.25 175.44-0.58 174.64-1.4 174.64-3.7L174.64-3.7Q174.64-5.25 174.94-7.45 175.24-9.65 175.99-14.1L175.99-14.1Q176.09-14.7 176.79-18.98 177.49-23.25 178.04-27.95L178.04-27.95Q178.54-31.95 178.54-33.95L178.54-33.95Q178.54-36.2 176.89-36.2L176.89-36.2Q175.64-36.2 173.76-34.88 171.89-33.55 169.74-30.65L169.74-30.65Q169.04-29.7 168.19-29.7L168.19-29.7Q167.49-29.7 166.96-30.38 166.44-31.05 166.44-31.9L166.44-31.9Q166.44-32.75 166.74-33.52 167.04-34.3 167.84-35.4L167.84-35.4Q170.29-38.75 173.29-40.58 176.29-42.4 179.59-42.4L179.59-42.4Q182.34-42.4 183.71-40.7 185.09-39 185.09-35.75L185.09-35.75Q185.09-32.85 184.29-27.35L184.29-27.35Q186.79-34.75 190.64-38.58 194.49-42.4 199.69-42.4L199.69-42.4Q203.79-42.4 205.86-40.08 207.94-37.75 207.94-33.85L207.94-33.85Q207.94-31.65 207.29-28.5L207.29-28.5 204.24-14.2Q203.74-11.7 203.74-9.9L203.74-9.9Q203.74-7.8 204.71-6.75 205.69-5.7 207.44-5.7L207.44-5.7Q209.09-5.7 210.66-6.8 212.24-7.9 214.39-10.45L214.39-10.45Q214.99-11.15 215.74-11.15L215.74-11.15Q216.39-11.15 216.76-10.55 217.14-9.95 217.14-8.9L217.14-8.9Q217.14-6.95 216.19-5.8L216.19-5.8Q213.59-2.65 211.04-1.2 208.49 0.25 205.69 0.25L205.69 0.25Q201.44 0.25 199.04-2.27 196.64-4.8 196.64-9.05L196.64-9.05Q196.64-10.7 196.91-12.65 197.19-14.6 197.84-17.6L197.84-17.6 199.84-26.75Q199.94-27.2 200.19-28.35 200.44-29.5 200.59-30.53 200.74-31.55 200.74-32.55L200.74-32.55Q200.74-34.15 199.84-35.1 198.94-36.05 197.29-36.05L197.29-36.05Q194.29-36.05 191.29-32.85 188.29-29.65 185.74-22.53 183.19-15.4 181.74-4.3L181.74-4.3Q181.39-1.75 180.71-0.75 180.04 0.25 178.09 0.25L178.09 0.25ZM219.13-25.1Q217.88-25.1 217.06-25.78 216.23-26.45 216.38-28.05L216.38-28.05 217.38-37.6Q217.88-42.2 221.73-42.2L221.73-42.2Q225.03-42.2 225.03-39.1L225.03-39.1Q225.03-38.4 224.78-37.25L224.78-37.25 222.78-28.05Q222.43-26.45 221.43-25.78 220.43-25.1 219.13-25.1L219.13-25.1ZM279.58-29.8Q279.58-25.55 277.38-22 275.18-18.45 270.98-16.2 266.78-13.95 260.98-13.55L260.98-13.55 258.83-1.5Q257.58 5.45 252.03 5.45L252.03 5.45Q248.98 5.45 246.4 3.65 243.83 1.85 242.28-1.85 240.73-5.55 240.73-10.95L240.73-10.95Q240.73-21.1 244-28.18 247.28-35.25 252.8-38.78 258.33-42.3 264.98-42.3L264.98-42.3Q269.68-42.3 272.95-40.65 276.23-39 277.9-36.18 279.58-33.35 279.58-29.8L279.58-29.8ZM261.88-18.7Q272.13-20 272.13-29.35L272.13-29.35Q272.13-32.65 269.95-34.73 267.78-36.8 263.23-36.8L263.23-36.8Q258.08-36.8 254.25-33.55 250.43-30.3 248.35-24.53 246.28-18.75 246.28-11.35L246.28-11.35Q246.28-8.25 246.9-5.85 247.53-3.45 248.5-2.13 249.48-0.8 250.38-0.8L250.38-0.8Q251.63-0.8 252.28-4.25L252.28-4.25 253.93-13.7Q251.98-14 252.23-13.95L252.23-13.95Q250.73-14.2 250.28-14.88 249.83-15.55 249.83-16.6L249.83-16.6Q249.83-17.7 250.45-18.35 251.08-19 252.18-19L252.18-19Q252.68-19 252.93-18.95L252.93-18.95Q254.13-18.75 254.78-18.7L254.78-18.7Q255.43-22.6 256.63-29.15L256.63-29.15Q256.93-30.85 258-31.58 259.08-32.3 260.53-32.3L260.53-32.3Q262.18-32.3 262.9-31.68 263.63-31.05 263.63-29.7L263.63-29.7Q263.63-28.9 263.53-28.4L263.53-28.4 261.88-18.7ZM282.98 0.25Q279.88 0.25 278.03-2 276.18-4.25 276.18-7.9L276.18-7.9Q276.18-11.9 278.03-15.48 279.88-19.05 282.95-21.23 286.03-23.4 289.48-23.4L289.48-23.4Q290.57-23.4 290.95-22.98 291.32-22.55 291.57-21.45L291.57-21.45Q292.63-21.65 293.78-21.65L293.78-21.65Q296.23-21.65 296.23-19.9L296.23-19.9Q296.23-18.85 295.48-14.9L295.48-14.9Q294.32-9.15 294.32-6.9L294.32-6.9Q294.32-6.15 294.7-5.7 295.07-5.25 295.68-5.25L295.68-5.25Q296.63-5.25 297.98-6.48 299.32-7.7 301.63-10.45L301.63-10.45Q302.23-11.15 302.98-11.15L302.98-11.15Q303.63-11.15 304-10.55 304.38-9.95 304.38-8.9L304.38-8.9Q304.38-6.9 303.43-5.8L303.43-5.8Q301.38-3.25 299.07-1.5 296.78 0.25 294.63 0.25L294.63 0.25Q292.98 0.25 291.6-0.88 290.23-2 289.53-3.95L289.53-3.95Q286.93 0.25 282.98 0.25L282.98 0.25ZM284.78-4.8Q285.88-4.8 286.88-6.1 287.88-7.4 288.32-9.55L288.32-9.55 290.18-18.75Q288.07-18.7 286.3-17.18 284.53-15.65 283.48-13.15 282.43-10.65 282.43-7.85L282.43-7.85Q282.43-6.3 283.05-5.55 283.68-4.8 284.78-4.8L284.78-4.8ZM325.92-11.05Q326.57-11.05 326.95-10.43 327.32-9.8 327.32-8.85L327.32-8.85Q327.32-7.7 326.97-7.05 326.62-6.4 325.87-5.9L325.87-5.9Q321.57-3 319.57-1.6L319.57-1.6 316.37 0.55Q314.47 10.9 311.4 16.82 308.32 22.75 303.57 22.75L303.57 22.75Q301.02 22.75 299.42 21.18 297.82 19.6 297.82 17.05L297.82 17.05Q297.82 13.5 300.62 9.43 303.42 5.35 311.12-0.6L311.12-0.6 311.42-2.55Q310.57-1.2 309.2-0.48 307.82 0.25 306.47 0.25L306.47 0.25Q303.37 0.25 301.52-2 299.67-4.25 299.67-7.9L299.67-7.9Q299.67-11.9 301.52-15.48 303.37-19.05 306.45-21.23 309.52-23.4 312.97-23.4L312.97-23.4Q314.07-23.4 314.45-22.98 314.82-22.55 315.07-21.45L315.07-21.45Q316.02-21.65 317.27-21.65L317.27-21.65Q318.52-21.65 319.05-21.28 319.57-20.9 319.57-19.8L319.57-19.8Q319.57-19.2 319.52-18.85L319.52-18.85Q319.32-17.3 318.27-11L318.27-11Q318.07-9.8 317.85-8.38 317.62-6.95 317.37-5.35L317.37-5.35Q321.22-8.35 324.77-10.65L324.77-10.65Q325.42-11.05 325.92-11.05L325.92-11.05ZM308.27-4.8Q309.42-4.8 310.47-6.2 311.52-7.6 311.97-10.2L311.97-10.2 313.57-18.75Q311.52-18.7 309.77-17.18 308.02-15.65 306.97-13.15 305.92-10.65 305.92-7.85L305.92-7.85Q305.92-6.3 306.55-5.55 307.17-4.8 308.27-4.8L308.27-4.8ZM304.12 17.9Q305.37 17.9 306.95 14.9 308.52 11.9 309.97 5.35L309.97 5.35Q306.12 8.65 304.42 11.3 302.72 13.95 302.72 15.95L302.72 15.95Q302.72 16.8 303.05 17.35 303.37 17.9 304.12 17.9L304.12 17.9ZM346.57-11.15Q347.22-11.15 347.6-10.55 347.97-9.95 347.97-8.9L347.97-8.9Q347.97-6.9 347.02-5.8L347.02-5.8Q345.17-3.55 341.8-1.65 338.42 0.25 334.57 0.25L334.57 0.25Q329.32 0.25 326.42-2.6 323.52-5.45 323.52-10.4L323.52-10.4Q323.52-13.85 324.97-16.82 326.42-19.8 329-21.55 331.57-23.3 334.82-23.3L334.82-23.3Q337.72-23.3 339.47-21.58 341.22-19.85 341.22-16.9L341.22-16.9Q341.22-13.45 338.75-10.98 336.27-8.5 330.37-7.05L330.37-7.05Q331.62-4.75 335.12-4.75L335.12-4.75Q337.37-4.75 340.25-6.33 343.12-7.9 345.22-10.45L345.22-10.45Q345.82-11.15 346.57-11.15L346.57-11.15ZM333.97-18.4Q332.12-18.4 330.85-16.25 329.57-14.1 329.57-11.05L329.57-11.05 329.57-10.95Q332.52-11.65 334.22-13.05 335.92-14.45 335.92-16.3L335.92-16.3Q335.92-17.25 335.39-17.82 334.87-18.4 333.97-18.4L333.97-18.4ZM353.22 1.35Q350.62 1.35 349.24 0.15 347.87-1.05 347.87-2.55L347.87-2.55Q347.87-3.85 348.82-4.8 349.77-5.75 351.62-5.75L351.62-5.75Q352.27-5.75 353.14-5.63 354.02-5.5 354.47-5.45L354.47-5.45Q354.42-6.75 353.89-7.9 353.37-9.05 352.57-10.13 351.77-11.2 351.07-12L351.07-12Q349.52-9.05 347.99-7.1 346.47-5.15 344.67-3.4L344.67-3.4Q343.77-2.5 342.77-2.5L342.77-2.5Q341.97-2.5 341.47-3.08 340.97-3.65 340.97-4.5L340.97-4.5Q340.97-5.5 341.67-6.35L341.67-6.35 342.32-7.15Q345.07-10.55 346.47-12.75L346.47-12.75Q347.32-14.2 348.47-16.63 349.62-19.05 350.72-21.65L350.72-21.65Q351.67-23.85 354.67-23.85L354.67-23.85Q356.07-23.85 356.62-23.6 357.17-23.35 357.17-22.8L357.17-22.8Q357.17-22.5 356.97-21.85 356.77-21.2 356.42-20.55L356.42-20.55Q355.52-18.75 355.52-17.5L355.52-17.5Q355.52-16.75 356.04-15.85 356.57-14.95 357.67-13.6L357.67-13.6Q359.27-11.5 360.09-10.03 360.92-8.55 360.92-6.8L360.92-6.8Q360.92-6.3 360.82-5.4L360.82-5.4Q363.27-6.35 366.57-10.45L366.57-10.45Q367.17-11.15 367.92-11.15L367.92-11.15Q368.57-11.15 368.94-10.55 369.32-9.95 369.32-8.9L369.32-8.9Q369.32-7 368.37-5.8L368.37-5.8Q365.87-2.7 363.59-1.58 361.32-0.45 357.97-0.35L357.97-0.35Q355.97 1.35 353.22 1.35L353.22 1.35Z" opacity="1" transform="matrix(1,0,0,1,0,0)" fill="#f6f6f6" class="undefined-text-0" data-fill-palette-color="primary" id="text-0"></path></svg></g></svg></g><g transform="matrix(1,0,0,1,0,45.56435395540875)"><svg viewBox="0 0 192 22.780776218001648" height="22.780776218001648" width="192"><g transform="matrix(1,0,0,1,0,0)"><svg width="192" viewBox="4.309999942779541 -31.3799991607666 268.3600158691406 31.842010498046875" height="22.780776218001648" data-palette-color="#f6f6f6"><path d="M4.31-1.9L4.31-29.48Q4.31-30.17 4.71-30.57L4.71-30.57Q5.4-31.26 6.21-31.38L6.21-31.38 16.32-31.38Q20.52-31.38 23.22-29.14L23.22-29.14Q25.86-27.01 25.86-23.45L25.86-23.45Q25.86-20.86 24.25-18.97L24.25-18.97Q22.53-17.01 19.83-16.38L19.83-16.38 19.83-16.32Q25-15.4 26.67-11.38L26.67-11.38Q27.13-10.11 27.13-8.51 27.13-6.9 26.61-5.34 26.09-3.79 24.83-2.64L24.83-2.64Q21.95 0 16.72 0L16.72 0 6.21 0Q5.52 0 5-0.46L5-0.46Q4.31-1.03 4.31-1.9L4.31-1.9ZM8.1-14.71L8.1-2.99 14.71-2.99Q19.08-2.99 20.86-4.25L20.86-4.25Q23.1-5.63 23.1-8.85L23.1-8.85Q23.1-13.91 17.13-14.6L17.13-14.6Q15.34-14.71 13.1-14.71L13.1-14.71 8.1-14.71ZM21.9-23.1L21.9-23.1Q21.9-28.39 14.6-28.28L14.6-28.28 8.1-28.28 8.1-17.59 14.66-17.59Q19.48-17.59 21.26-20.52L21.26-20.52Q21.9-21.55 21.9-23.1ZM69.56-10.86L69.56-10.86Q69.56-12.93 70.22-15 70.88-17.07 72.26-18.74L72.26-18.74Q75.14-22.24 80.42-22.24 85.71-22.24 88.58-18.74L88.58-18.74Q91.29-15.4 91.29-10.92L91.29-10.92Q91.29-6.38 88.58-3.1L88.58-3.1Q85.71 0.46 80.42 0.46 75.14 0.46 72.26-3.1L72.26-3.1Q69.56-6.32 69.56-10.86ZM73.3-10.86L73.3-10.86Q73.3-9.48 73.67-7.93 74.04-6.38 75.02-5.06L75.02-5.06Q76.98-2.24 80.42-2.24L80.42-2.24Q84.04-2.24 85.83-5.06L85.83-5.06Q87.49-7.7 87.49-10.92L87.49-10.92Q87.49-14.25 85.83-16.67L85.83-16.67Q83.99-19.54 80.42-19.54L80.42-19.54Q76.98-19.54 75.02-16.67L75.02-16.67Q73.3-14.31 73.3-10.86ZM132.28-10.86L132.28-10.86Q132.28-12.93 132.94-15 133.61-17.07 134.98-18.74L134.98-18.74Q137.86-22.24 143.15-22.24 148.43-22.24 151.31-18.74L151.31-18.74Q154.01-15.4 154.01-10.92L154.01-10.92Q154.01-6.38 151.31-3.1L151.31-3.1Q148.43 0.46 143.15 0.46 137.86 0.46 134.98-3.1L134.98-3.1Q132.28-6.32 132.28-10.86ZM136.02-10.86L136.02-10.86Q136.02-9.48 136.39-7.93 136.77-6.38 137.74-5.06L137.74-5.06Q139.7-2.24 143.15-2.24L143.15-2.24Q146.77-2.24 148.55-5.06L148.55-5.06Q150.21-7.7 150.21-10.92L150.21-10.92Q150.21-14.25 148.55-16.67L148.55-16.67Q146.71-19.54 143.15-19.54L143.15-19.54Q139.7-19.54 137.74-16.67L137.74-16.67Q136.02-14.31 136.02-10.86ZM211.04-0.57L200.24-11.72 200.24-1.72Q200.24-0.86 199.69-0.43 199.14 0 198.48 0 197.82 0 197.3-0.43 196.79-0.86 196.79-1.72L196.79-1.72 196.79-29.54Q196.79-30.46 197.3-30.86 197.82-31.26 198.34-31.26 198.86-31.26 199.17-31.21 199.49-31.15 199.78-30.86L199.78-30.86Q200.24-30.46 200.24-29.54L200.24-29.54 200.24-12.93 210.18-21.26Q210.7-21.84 211.27-21.84L211.27-21.84Q211.9-21.84 212.39-21.38 212.88-20.92 212.88-20.52L212.88-20.52Q212.88-19.77 212.42-19.43L212.42-19.43 203.91-12.3 213.57-2.53Q213.91-2.18 213.91-1.7 213.91-1.21 213.77-0.95 213.63-0.69 213.34-0.46L213.34-0.46Q212.76 0 212.19 0 211.62 0 211.04-0.57L211.04-0.57ZM263.36-19.54L263.36-19.54Q258.36-19.54 258.48-16.38L258.48-16.38Q258.48-14.37 261.35-13.62L261.35-13.62Q262.33-13.33 263.45-13.1 264.57-12.87 265.89-12.56 267.21-12.24 268.59-11.72L268.59-11.72Q270.54-11.15 271.61-9.8 272.67-8.45 272.67-6.55L272.67-6.55Q272.67-3.1 269.74-1.21L269.74-1.21Q267.1 0.52 263.07 0.46L263.07 0.46Q260.08 0.46 257.21-0.57L257.21-0.57Q256.06-1.03 255.37-1.67 254.68-2.3 254.68-2.87 254.68-3.45 255.06-3.79 255.43-4.14 255.95-4.14 256.46-4.14 257.12-3.85 257.79-3.56 258.82-3.22L258.82-3.22Q261.46-2.24 263.07-2.24 264.68-2.24 265.66-2.44 266.64-2.64 267.44-3.1L267.44-3.1Q269.17-4.25 269.17-6.09L269.17-6.09Q269.17-7.41 268.33-8.13 267.5-8.85 266.21-9.25 264.91-9.66 263.65-9.94 262.38-10.23 261.12-10.52 259.85-10.8 258.71-11.21 257.56-11.61 256.75-12.3L256.75-12.3Q254.8-13.68 254.8-16.21L254.8-16.21Q254.8-19.43 257.5-20.86L257.5-20.86Q259.74-22.24 263.42-22.24L263.42-22.24Q267.15-22.24 269.39-21.15L269.39-21.15Q271.29-20.17 271.29-18.97L271.29-18.97Q271.29-18.51 270.92-18.22 270.54-17.93 270.08-17.93L270.08-17.93Q269.22-17.93 268.79-18.22 268.36-18.51 267.84-18.79 267.33-19.08 266.64-19.2L266.64-19.2Q265.37-19.54 263.36-19.54Z" opacity="1" transform="matrix(1,0,0,1,0,0)" fill="#f6f6f6" class="undefined-text-1" data-fill-palette-color="secondary" id="text-1"></path></svg></g></svg></g></svg></g></svg></g></svg></g></svg></g></svg></g></svg></g></svg><rect width="320" height="360" fill="none" stroke="none" visibility="hidden"></rect></g></svg></g></svg>